PathFileType	4	(X/Y/Z)	/home/mitkof6/dev/sinergia_osimrl/data/02761/02761_PRE/experimental_data/static.trc
DataRate	CameraRate	NumFrames	NumMarkers	Units	OrigDataRate	OrigDataStartFrame	OrigNumFrames
100.000000	100.000000	4	45	mm	100.000000	0	189
Frame#	Time	C7			CLAV			LANK			LASI			LBHD			LELB			LFHD			LFIN			LHEE			LKNE			LKNI			LMED			LMET			LMIF			LPSI			LSHO			LTHI			LTIB			LTOE			LTTU			LWRA			LWRB			RANK			RASI			RBAK			RBHD			RELB			RFHD			RFIN			RHEE			RKNE			RKNI			RMED			RMET			RMIF			RPSI			RSHO			RTHI			RTIB			RTOE			RTTU			RWRA			RWRB			STRN			T10			
		X1	Y1	Z1	X2	Y2	Z2	X3	Y3	Z3	X4	Y4	Z4	X5	Y5	Z5	X6	Y6	Z6	X7	Y7	Z7	X8	Y8	Z8	X9	Y9	Z9	X10	Y10	Z10	X11	Y11	Z11	X12	Y12	Z12	X13	Y13	Z13	X14	Y14	Z14	X15	Y15	Z15	X16	Y16	Z16	X17	Y17	Z17	X18	Y18	Z18	X19	Y19	Z19	X20	Y20	Z20	X21	Y21	Z21	X22	Y22	Z22	X23	Y23	Z23	X24	Y24	Z24	X25	Y25	Z25	X26	Y26	Z26	X27	Y27	Z27	X28	Y28	Z28	X29	Y29	Z29	X30	Y30	Z30	X31	Y31	Z31	X32	Y32	Z32	X33	Y33	Z33	X34	Y34	Z34	X35	Y35	Z35	X36	Y36	Z36	X37	Y37	Z37	X38	Y38	Z38	X39	Y39	Z39	X40	Y40	Z40	X41	Y41	Z41	X42	Y42	Z42	X43	Y43	Z43	X44	Y44	Z44	X45	Y45	Z45	

1	0	264.1510009765625	1211.657958984375	-284.0469970703122	378.6109924316406	1144.490966796875	-278.9800109863279	249.3529968261719	59.23699951171884	-431.7049865722656	349.427001953125	818.7529907226564	-384.9930114746092	291.3259887695312	1340.038940429688	-349.0280151367185	316.5610046386719	943.8239746093751	-541.054992675781	416.6229858398438	1352.432006835938	-326.5379943847653	437.4570007324219	711.2310180664064	-665.1480102539061	194.9160003662109	34.69200134277353	-405.7640075683594	278.4049987792969	440.7929992675782	-425.2080078124999	249.6640014648438	417.4400024414063	-306.4209899902343	245.2149963378906	65.29699707031259	-357.6340026855469	344.7420043945312	27.8799991607667	-431.989013671875	303.2940063476562	65.03600311279305	-383.968994140625	229.5489959716797	877.3250122070314	-312.272003173828	305.8309936523438	1166.14794921875	-413.6090087890622	273.8469848632812	581.1420288085939	-471.5419921874999	254.7160034179688	248.6929931640626	-487.7499999999999	361.6130065917969	41.9710006713868	-389.2359924316406	312.3399963378906	360.0979919433594	-365.0969848632812	431.6520080566406	750.4249877929689	-606.3070068359374	379.3680114746094	745.7130126953126	-647.4450073242186	249.3150024414062	54.52799987792971	-111.8509979248047	371.2030029296875	805.0040283203125	-184.9459991455076	245.7400054931641	1089.761962890625	-178.8470001220701	253.0989990234375	1320.155029296875	-248.0090026855466	307.0130004882812	961.926025390625	-26.36700057983377	391.197998046875	1339.739990234375	-204.0540008544919	356.239013671875	733.9550170898438	105.8850021362306	215.6909942626953	26.70199966430668	-161.2689971923828	272.2770080566406	434.9330139160157	-131.2539978027343	282.093994140625	405.4570007324219	-249.6139984130859	287.3900146484375	63.53799819946293	-176.8910064697266	336.2739868164062	29.11599922180177	-63.91400146484374	310.2940063476562	71.23000335693362	-128.5019989013672	237.8049926757812	875.0590209960938	-225.7449951171873	308.8070068359375	1198.803955078125	-149.2449951171872	294.7149963378906	572.2230224609375	-87.78199768066393	235.4389953613281	230.4140014648438	-71.44899749755854	366.6430053710938	43.27799987792971	-92.89600372314452	316.06298828125	354.1390075683594	-167.5160064697265	329.27099609375	766.8280029296875	63.08000183105486	386.114013671875	776.2650146484375	64.91300201416033	417.010986328125	1012.161987304688	-271.5660095214841	253.9629974365234	959.1519775390626	-268.7049865722654	
2	0.01	264.1690063476562	1211.666015625	-284.0539855957028	378.7090148925781	1144.487060546875	-278.9989929199216	249.4640045166016	59.51499938964853	-431.8699951171875	349.4089965820312	818.7540283203126	-384.9920043945311	291.364013671875	1340.006958007812	-349.0509948730466	316.6849975585938	943.8239746093751	-541.1090087890623	416.6579895019531	1352.447998046875	-326.5280151367185	437.6539916992188	711.2819824218751	-665.2249755859374	194.906005859375	34.70399856567392	-405.7359924316406	278.2909851074219	440.8280029296876	-425.1749877929686	249.6959991455078	417.4159851074219	-306.3370056152343	245.2200012207031	65.30200195312509	-357.6109924316406	344.7369995117188	27.88699913024912	-431.9970092773438	303.2999877929688	65.06500244140634	-383.9450073242188	229.3869934082031	877.4249877929689	-312.1969909667967	305.9309997558594	1166.10205078125	-413.6249999999997	273.4429931640625	581.2150268554689	-471.4349975585936	254.6340026855469	248.7469940185548	-487.7229919433593	361.6220092773438	41.97700119018563	-389.2510070800781	312.3290100097656	360.1279907226563	-365.0960083007812	431.7820129394531	750.4149780273439	-606.4010009765624	379.5750122070312	745.7739868164064	-647.4819946289061	249.322998046875	54.54899978637697	-111.8330001831055	371.3590087890625	805.0029907226562	-184.9720001220701	245.8679962158203	1089.713012695312	-178.867004394531	253.1349945068359	1320.14794921875	-248.0279998779294	307.0379943847656	961.8380126953125	-26.47999954223611	391.2179870605469	1339.765991210938	-204.0540008544919	356.2330017089844	733.7890014648438	105.6360015869142	215.6829986572266	26.70199966430668	-161.2369995117188	272.3580017089844	434.9379882812501	-131.1770019531249	282.0710144042969	405.4570007324219	-249.5769958496093	287.3869934082031	63.56000137329106	-176.8979949951172	336.2780151367188	29.12899971008302	-63.91500091552734	310.2999877929688	71.2330017089844	-128.5039978027343	237.9299926757812	875.0919799804688	-225.5910034179686	308.8609924316406	1198.784057617188	-149.2760009765622	294.8519897460938	572.1950073242188	-87.69599914550768	235.4750061035156	230.4049987792969	-71.38500213623041	366.6430053710938	43.28200149536135	-92.91300201416014	316.1090087890625	354.1489868164063	-167.5149993896484	329.2770080566406	766.677001953125	62.86299896240251	385.8989868164062	775.75	64.95700073242205	417.1570129394531	1012.171020507813	-271.5830078124998	254.125	959.1459960937501	-268.5690002441404	
3	0.02	264.2059936523438	1211.6650390625	-284.065002441406	378.802001953125	1144.47998046875	-279.0109863281248	249.5440063476562	59.72000122070322	-431.9830017089844	349.3869934082031	818.7540283203126	-384.9890136718748	291.4089965820312	1339.98095703125	-349.0790100097653	316.81201171875	943.8239746093751	-541.1640014648435	416.7000122070312	1352.464965820312	-326.5220031738278	437.8380126953125	711.3259887695314	-665.3079833984374	194.8990020751953	34.71400070190439	-405.7099914550781	278.1830139160156	440.8569946289064	-425.1319885253905	249.7429962158203	417.3880004882813	-306.2489929199218	245.2239990234375	65.30200195312509	-357.5870056152344	344.7330017089844	27.88899993896494	-432.0020141601562	303.3009948730469	65.07599639892587	-383.9169921875	229.3339996337891	877.4810180664064	-312.0880126953123	306.0329895019531	1166.06005859375	-413.638000488281	273.0379943847656	581.2739868164064	-471.3280029296874	254.5559997558594	248.7960052490236	-487.6900024414062	361.6319885253906	41.9819984436036	-389.2619934082031	312.3219909667969	360.1510009765626	-365.0910034179687	431.9129943847656	750.4130249023439	-606.4929809570311	379.7720031738281	745.8380126953126	-647.5310058593749	249.3289947509766	54.56299972534182	-111.8199996948242	371.5079956054688	804.9970092773438	-184.9920043945311	245.9960021972656	1089.666015625	-178.8919982910154	253.1670074462891	1320.141967773438	-248.054992675781	307.0700073242188	961.75	-26.59399986267069	391.2449951171875	1339.7939453125	-204.0590057373044	356.2349853515625	733.6279907226562	105.3919982910158	215.6759948730469	26.70000076293949	-161.2140045166016	272.4309997558594	434.9410095214844	-131.1100006103515	282.0539855957031	405.4570007324219	-249.5410003662109	287.3819885253906	63.5750007629395	-176.9019927978516	336.2799987792969	29.13699913024904	-63.91400146484374	310.3049926757812	71.23699951171878	-128.5039978027343	238.0690002441406	875.1209716796875	-225.4369964599607	308.9100036621094	1198.765014648438	-149.3009948730466	294.9819946289062	572.1710205078125	-87.62300109863268	235.5119934082031	230.395004272461	-71.33000183105463	366.6430053710938	43.28499984741213	-92.9240036010742	316.1510009765625	354.1570129394532	-167.5090026855468	329.2879943847656	766.5360107421875	62.63700103759783	385.7789916992188	775.375	64.92299652099626	417.2950134277344	1012.174987792969	-271.5950012207029	254.2619934082031	959.1439819335939	-268.4429931640623	
4	0.03	264.2680053710938	1211.651977539062	-284.0870056152341	378.885009765625	1144.469970703125	-279.0109863281248	249.5859985351562	59.83000183105479	-432.0270080566406	349.3580017089844	818.7529907226564	-384.9790039062498	291.4679870605469	1339.962036132812	-349.1140136718747	316.9440002441406	943.8229980468751	-541.2189941406248	416.7590026855469	1352.483032226562	-326.523986816406	437.9989929199219	711.3610229492189	-665.4000244140624	194.8979949951172	34.72100067138681	-405.6839904785156	278.0859985351562	440.8770141601564	-425.0780029296874	249.8150024414062	417.3529968261719	-306.1549987792968	245.22900390625	65.2939987182618	-357.5669860839844	344.7279968261719	27.88500022888193	-432.0029907226562	303.3080139160156	65.08200073242196	-383.8930053710938	229.427001953125	877.4769897460939	-311.9330139160155	306.1380004882812	1166.02197265625	-413.6449890136716	272.6380004882812	581.3120117187501	-471.2239990234374	254.4810028076172	248.8339996337892	-487.6489868164062	361.6430053710938	41.98400115966805	-389.2659912109375	312.3210144042969	360.1640014648438	-365.0769958496093	432.0450134277344	750.4210205078126	-606.5850219726561	379.9590148925781	745.9050292968751	-647.5999755859374	249.3329925537109	54.56600189208987	-111.8140029907226	371.6480102539062	804.9849853515625	-184.9999999999998	246.1260070800781	1089.621948242188	-178.9219970703122	253.1959991455078	1320.136962890625	-248.0980072021482	307.1170043945312	961.6630249023438	-26.70599937438944	391.2850036621094	1339.824951171875	-204.0700073242185	356.2569885253906	733.4739990234375	105.1579971313478	215.6690063476562	26.69499969482425	-161.2039947509766	272.4960021972656	434.9400024414063	-131.0540008544921	282.0469970703125	405.4559936523438	-249.5030059814452	287.3739929199219	63.57799911499028	-176.9019927978516	336.2780151367188	29.13699913024904	-63.9099998474121	310.3089904785156	71.23899841308597	-128.4989929199218	238.2350006103516	875.1400146484375	-225.2799987792967	308.9549865722656	1198.745971679688	-149.3159942626951	295.0989990234375	572.1519775390625	-87.56400299072253	235.5500030517578	230.3829956054688	-71.2880020141601	366.6430053710938	43.28699874877932	-92.92800140380858	316.1889953613281	354.1589965820313	-167.490997314453	329.3179931640625	766.405029296875	62.39799880981462	385.8009948730469	775.208984375	64.77999877929705	417.4200134277344	1012.171020507813	-271.6000061035154	254.3809967041016	959.1459960937501	-268.3299865722654	
